<svg width="128" height="128" viewBox="0 0 512 512" fill="none" xmlns="http://www.w3.org/2000/svg">
  <defs>
    <linearGradient id="bg" x1="90" y1="50" x2="420" y2="460" gradientUnits="userSpaceOnUse">
      <stop stop-color="#1E1F2A"/>
      <stop offset="1" stop-color="#10121A"/>
    </linearGradient>
    <linearGradient id="star" x1="200" y1="90" x2="320" y2="260" gradientUnits="userSpaceOnUse">
      <stop stop-color="#FFD54F"/>
      <stop offset="1" stop-color="#FFB300"/>
    </linearGradient>
  </defs>
  <circle cx="256" cy="256" r="246" fill="url(#bg)" stroke="#22283A" stroke-width="16"/>
  <path d="M259 196c-3.5-2.2-5-6.5-3.7-10.4l18.1-53.4c1.3-3.9 5-6.5 9.2-6.5h56.7c4.2 0 7.9 2.6 9.2 6.5l18.2 53.4c1.3 3.9-0.2 8.1-3.7 10.4l-46 30.5c-3.4 2.3-7.9 2.3-11.3 0l-46.7-30.5Z" fill="url(#star)" stroke="#F49F00" stroke-width="12" stroke-linejoin="round"/>
  <circle cx="297" cy="185" r="8" fill="#0F1624"/>
  <circle cx="329" cy="185" r="8" fill="#0F1624"/>
  <path d="M305 205c5 8 16 8 21 0" stroke="#0F1624" stroke-width="8" stroke-linecap="round"/>
  <path d="M154 204h82v94h-82z" rx="8" fill="#2EC5FF" stroke="#1B96CF" stroke-width="10" stroke-linejoin="round"/>
  <path d="M192 226h28M192 250h28M192 274h18" stroke="#0E3F66" stroke-width="10" stroke-linecap="round"/>
  <path d="M278 216h80v100h-80z" fill="#4C3D7B" stroke="#35285B" stroke-width="12" stroke-linejoin="round"/>
  <circle cx="318" cy="268" r="32" fill="#0F1624" stroke="#A8B5FF" stroke-width="10"/>
</svg>
